<svg width="59" height="37" viewBox="0 0 59 37" fill="none" xmlns="http://www.w3.org/2000/svg">
<g id="Group 1000002146">
<path id="Ellipse 164" d="M35.9646 17.9783C35.9646 27.9075 27.9154 35.9567 17.9863 35.9567C8.05712 35.9567 0.00794983 27.9075 0.00794983 17.9783C0.00794983 8.04917 8.05712 0 17.9863 0C27.9154 0 35.9646 8.04917 35.9646 17.9783ZM12.9694 17.9783C12.9694 20.7491 15.2155 22.9952 17.9863 22.9952C20.757 22.9952 23.0032 20.7491 23.0032 17.9783C23.0032 15.2076 20.757 12.9615 17.9863 12.9615C15.2155 12.9615 12.9694 15.2076 12.9694 17.9783Z" fill="#E1DAF9"/>
<path id="Union" fill-rule="evenodd" clip-rule="evenodd" d="M54.0274 6.12254C57.3717 9.52121 59.0378 14.0535 58.9994 18.8215L46.4023 18.7741C46.4134 17.3977 45.8773 16.0733 44.9119 15.0922C43.9465 14.1111 42.6309 13.5537 41.2546 13.5426C39.8782 13.5315 38.5538 14.0676 37.5727 15.033C36.6138 15.9766 36.0596 17.2548 36.0247 18.5972L36.0283 18.5973C35.8833 23.3633 33.851 27.8764 30.3785 31.1439C26.906 34.4115 22.2777 36.1657 17.5117 36.0208C12.7458 35.8758 8.23261 33.8435 4.96509 30.371C1.69756 26.8985 -0.136971 22.663 0.00798869 17.8971L13.005 17.8971C12.9643 19.2373 13.4576 20.5388 14.3764 21.5153C15.2953 22.4918 16.5644 23.0632 17.9046 23.104C19.2448 23.1448 20.5463 22.6515 21.5228 21.7326C22.4993 20.8138 23.0708 19.5447 23.1115 18.2044L23.242 18.2084C23.3769 13.5784 25.2945 9.17317 28.603 5.91756C32.0017 2.57326 36.5897 0.716049 41.3577 0.754491C46.1257 0.792933 50.6831 2.72388 54.0274 6.12254Z" fill="#BAD3EC"/>
<rect id="Rectangle 18" x="44.3683" y="21.5054" width="14.4966" height="14.4966" rx="7.24828" fill="#EA9669"/>
</g>
</svg>
