<svg width="74" height="73" viewBox="0 0 74 73" fill="none" xmlns="http://www.w3.org/2000/svg">
<path d="M42.0658 28.7963C42.0658 37.151 35.293 43.9237 26.9384 43.9237C18.5837 43.9237 11.811 37.151 11.811 28.7963C11.811 20.4417 18.5837 13.6689 26.9384 13.6689C35.293 13.6689 42.0658 20.4417 42.0658 28.7963ZM22.7171 28.7963C22.7171 31.1277 24.607 33.0177 26.9384 33.0177C29.2697 33.0177 31.1597 31.1277 31.1597 28.7963C31.1597 26.465 29.2697 24.575 26.9384 24.575C24.607 24.575 22.7171 26.465 22.7171 28.7963Z" fill="#E57C43"/>
<path fill-rule="evenodd" clip-rule="evenodd" d="M57.2642 18.8205C60.0781 21.6802 61.48 25.4939 61.4477 29.5058L50.8483 29.4658C50.8576 28.3077 50.4065 27.1933 49.5942 26.3678C48.7819 25.5423 47.6749 25.0733 46.5168 25.0639C45.3587 25.0546 44.2443 25.5057 43.4188 26.318C42.6119 27.112 42.1456 28.1875 42.1163 29.3171L42.1193 29.3172C41.9974 33.3274 40.2873 37.1249 37.3655 39.8742C34.4436 42.6236 30.5492 44.0997 26.539 43.9777C22.5289 43.8557 18.7314 42.1457 15.982 39.2239C13.2326 36.302 11.689 32.7382 11.811 28.728L22.747 28.728C22.7127 29.8557 23.1278 30.9508 23.9009 31.7724C24.6741 32.5941 25.7419 33.075 26.8696 33.1093C27.9973 33.1436 29.0924 32.7285 29.9141 31.9553C30.7357 31.1822 31.2166 30.1143 31.2509 28.9866L31.3606 28.99C31.4741 25.0942 33.0876 21.3874 35.8715 18.648C38.7312 15.8341 42.5917 14.2714 46.6036 14.3037C50.6155 14.3361 54.4502 15.9608 57.2642 18.8205Z" fill="#B4A2F1"/>
<rect x="49.1368" y="31.7642" width="12.1977" height="12.1977" rx="6.09887" fill="#E57C43"/>
<path d="M11.3965 57.4441V55.4972C11.3965 55.2304 11.3445 54.9794 11.2405 54.7442C11.141 54.5045 11.0031 54.2965 10.8267 54.1201C10.6503 53.9438 10.4423 53.8058 10.2026 53.7063C9.96743 53.6023 9.71644 53.5503 9.44962 53.5503C9.1828 53.5503 8.92955 53.6023 8.68986 53.7063C8.4547 53.8058 8.24893 53.9438 8.07256 54.1201C7.89619 54.2965 7.75599 54.5045 7.65198 54.7442C7.55249 54.9794 7.50274 55.2304 7.50274 55.4972V57.4441H11.3965ZM13.3434 61.3311H11.3965V59.3842H7.50274V61.3311H5.56264V55.4972C5.56264 54.959 5.66439 54.4548 5.8679 53.9845C6.07141 53.5096 6.34727 53.0958 6.6955 52.7431C7.04824 52.3903 7.45978 52.1122 7.9301 51.9087C8.40495 51.7052 8.91146 51.6034 9.44962 51.6034C9.98778 51.6034 10.492 51.7052 10.9624 51.9087C11.4372 52.1122 11.851 52.3903 12.2037 52.7431C12.5565 53.0958 12.8346 53.5096 13.0381 53.9845C13.2416 54.4548 13.3434 54.959 13.3434 55.4972V61.3311ZM16.8985 61.3311H14.9517V51.6034H16.8985V61.3311ZM28.2819 61.3311H26.3418V54.3847C26.3418 54.249 26.3147 54.1224 26.2604 54.0048C26.2107 53.8872 26.1406 53.7855 26.0501 53.6995C25.9642 53.6091 25.8625 53.539 25.7449 53.4893C25.6273 53.4395 25.5007 53.4146 25.365 53.4146C25.2293 53.4146 25.1027 53.4395 24.9851 53.4893C24.8675 53.539 24.7635 53.6091 24.6731 53.6995C24.5872 53.7855 24.5193 53.8872 24.4696 54.0048C24.4198 54.1224 24.395 54.249 24.395 54.3847V61.3311H22.4481V54.3847C22.4481 54.249 22.4232 54.1224 22.3735 54.0048C22.3237 53.8872 22.2536 53.7855 22.1632 53.6995C22.0772 53.6091 21.9755 53.539 21.8579 53.4893C21.7403 53.4395 21.6137 53.4146 21.478 53.4146C21.3424 53.4146 21.2157 53.4395 21.0981 53.4893C20.9806 53.539 20.8765 53.6091 20.7861 53.6995C20.7002 53.7855 20.6323 53.8872 20.5826 54.0048C20.5328 54.1224 20.508 54.249 20.508 54.3847V61.3311H18.5611V54.3847C18.5611 53.9822 18.6357 53.6046 18.7849 53.2518C18.9387 52.8946 19.1467 52.5848 19.409 52.3225C19.6759 52.0557 19.9856 51.8476 20.3384 51.6984C20.6957 51.5446 21.0755 51.4678 21.478 51.4678C21.8398 51.4678 22.188 51.5333 22.5227 51.6645C22.8573 51.7911 23.1581 51.9765 23.4249 52.2207C23.6917 51.9765 23.9902 51.7911 24.3203 51.6645C24.655 51.5333 25.0032 51.4678 25.365 51.4678C25.7675 51.4678 26.1451 51.5446 26.4979 51.6984C26.8551 51.8476 27.1649 52.0557 27.4272 52.3225C27.694 52.5848 27.9021 52.8946 28.0513 53.2518C28.2051 53.6046 28.2819 53.9822 28.2819 54.3847V61.3311ZM59.1896 61.3311H57.107L53.3557 54.9274V61.3311H51.4088V51.6034H53.4914L57.2427 58.0139V51.6034H59.1896V61.3311ZM68.4768 61.3311H66.1162L64.2439 58.1903L62.3648 61.3311H60.0177L63.0025 56.4672L60.0177 51.6034H62.3648L64.2439 54.7442L66.1162 51.6034H68.4768L65.4921 56.4672L68.4768 61.3311Z" fill="#1F1E2E"/>
<path d="M39.4754 56.5079C39.4754 56.9692 39.4143 57.4147 39.2922 57.8443C39.1746 58.2694 39.0073 58.6696 38.7902 59.045C38.5732 59.4158 38.3109 59.755 38.0034 60.0625C37.6958 60.3701 37.3567 60.6346 36.9858 60.8562C36.615 61.0733 36.2148 61.2406 35.7851 61.3582C35.3555 61.4803 34.91 61.5413 34.4488 61.5413C33.9875 61.5413 33.542 61.4803 33.1124 61.3582C32.6873 61.2406 32.2871 61.0733 31.9117 60.8562C31.5409 60.6346 31.2017 60.3701 30.8942 60.0625C30.5867 59.755 30.3221 59.4158 30.1005 59.045C29.8834 58.6696 29.7138 58.2694 29.5917 57.8443C29.4742 57.4147 29.4154 56.9692 29.4154 56.5079C29.4154 56.0467 29.4742 55.6012 29.5917 55.1716C29.7138 54.742 29.8834 54.3417 30.1005 53.9709C30.3221 53.6001 30.5867 53.2609 30.8942 52.9534C31.2017 52.6458 31.5409 52.3835 31.9117 52.1665C32.2871 51.9494 32.6873 51.7821 33.1124 51.6645C33.542 51.5424 33.9875 51.4813 34.4488 51.4813C34.91 51.4813 35.3555 51.5424 35.7851 51.6645C36.2148 51.7821 36.615 51.9494 36.9858 52.1665C37.3567 52.3835 37.6958 52.6458 38.0034 52.9534C38.3109 53.2609 38.5732 53.6001 38.7902 53.9709C39.0073 54.3417 39.1746 54.742 39.2922 55.1716C39.4143 55.6012 39.4754 56.0467 39.4754 56.5079ZM37.5421 56.5079C37.5421 56.0828 37.4607 55.6826 37.2979 55.3073C37.1351 54.9274 36.9135 54.5995 36.6331 54.3236C36.3572 54.0432 36.0293 53.8217 35.6495 53.6588C35.2741 53.496 34.8739 53.4146 34.4488 53.4146C34.0191 53.4146 33.6166 53.496 33.2413 53.6588C32.8659 53.8217 32.5381 54.0432 32.2577 54.3236C31.9773 54.5995 31.7557 54.9274 31.5929 55.3073C31.4301 55.6826 31.3487 56.0828 31.3487 56.5079C31.3487 56.933 31.4301 57.3333 31.5929 57.7086C31.7557 58.0795 31.9773 58.4051 32.2577 58.6855C32.5381 58.9659 32.8659 59.1874 33.2413 59.3503C33.6166 59.5131 34.0191 59.5945 34.4488 59.5945C34.8739 59.5945 35.2741 59.5131 35.6495 59.3503C36.0293 59.1874 36.3572 58.9659 36.6331 58.6855C36.9135 58.4051 37.1351 58.0795 37.2979 57.7086C37.4607 57.3333 37.5421 56.933 37.5421 56.5079ZM50.2076 56.5079C50.2076 56.9692 50.1465 57.4147 50.0244 57.8443C49.9068 58.2694 49.7395 58.6696 49.5224 59.045C49.3053 59.4158 49.043 59.755 48.7355 60.0625C48.428 60.3701 48.0888 60.6346 47.718 60.8562C47.3472 61.0733 46.9469 61.2406 46.5173 61.3582C46.0877 61.4803 45.6422 61.5413 45.1809 61.5413C44.7197 61.5413 44.2742 61.4803 43.8446 61.3582C43.4195 61.2406 43.0192 61.0733 42.6439 60.8562C42.273 60.6346 41.9339 60.3701 41.6263 60.0625C41.3188 59.755 41.0543 59.4158 40.8327 59.045C40.6156 58.6696 40.446 58.2694 40.3239 57.8443C40.2063 57.4147 40.1475 56.9692 40.1475 56.5079C40.1475 56.0467 40.2063 55.6012 40.3239 55.1716C40.446 54.742 40.6156 54.3417 40.8327 53.9709C41.0543 53.6001 41.3188 53.2609 41.6263 52.9534C41.9339 52.6458 42.273 52.3835 42.6439 52.1665C43.0192 51.9494 43.4195 51.7821 43.8446 51.6645C44.2742 51.5424 44.7197 51.4813 45.1809 51.4813C45.6422 51.4813 46.0877 51.5424 46.5173 51.6645C46.9469 51.7821 47.3472 51.9494 47.718 52.1665C48.0888 52.3835 48.428 52.6458 48.7355 52.9534C49.043 53.2609 49.3053 53.6001 49.5224 53.9709C49.7395 54.3417 49.9068 54.742 50.0244 55.1716C50.1465 55.6012 50.2076 56.0467 50.2076 56.5079ZM48.2742 56.5079C48.2742 56.0828 48.1928 55.6826 48.03 55.3073C47.8672 54.9274 47.6456 54.5995 47.3652 54.3236C47.0894 54.0432 46.7615 53.8217 46.3816 53.6588C46.0063 53.496 45.606 53.4146 45.1809 53.4146C44.7513 53.4146 44.3488 53.496 43.9735 53.6588C43.5981 53.8217 43.2702 54.0432 42.9898 54.3236C42.7095 54.5995 42.4879 54.9274 42.3251 55.3073C42.1623 55.6826 42.0808 56.0828 42.0808 56.5079C42.0808 56.933 42.1623 57.3333 42.3251 57.7086C42.4879 58.0795 42.7095 58.4051 42.9898 58.6855C43.2702 58.9659 43.5981 59.1874 43.9735 59.3503C44.3488 59.5131 44.7513 59.5945 45.1809 59.5945C45.606 59.5945 46.0063 59.5131 46.3816 59.3503C46.7615 59.1874 47.0894 58.9659 47.3652 58.6855C47.6456 58.4051 47.8672 58.0795 48.03 57.7086C48.1928 57.3333 48.2742 56.933 48.2742 56.5079Z" fill="#E57C43"/>
</svg>
