<svg width="250" height="41" viewBox="0 0 250 41" fill="none" xmlns="http://www.w3.org/2000/svg">
<path d="M23.1177 24.1201V16.4126C23.1177 15.3563 22.9118 14.3626 22.5 13.4316C22.1062 12.4827 21.5601 11.6592 20.8619 10.9609C20.1636 10.2627 19.34 9.71663 18.3912 9.32275C17.4602 8.91097 16.4665 8.70508 15.4102 8.70508C14.3539 8.70508 13.3513 8.91097 12.4024 9.32275C11.4714 9.71663 10.6568 10.2627 9.95853 10.9609C9.26029 11.6592 8.70528 12.4827 8.2935 13.4316C7.89961 14.3626 7.70267 15.3563 7.70267 16.4126V24.1201H23.1177ZM30.8252 39.5083H23.1177V31.8008H7.70267V39.5083H0.0220108V16.4126C0.0220108 14.2821 0.424843 12.2858 1.23051 10.4238C2.03617 8.54395 3.12829 6.90576 4.50687 5.50928C5.90336 4.11279 7.53259 3.01172 9.39457 2.20605C11.2745 1.40039 13.2797 0.997559 15.4102 0.997559C17.5407 0.997559 19.537 1.40039 21.399 2.20605C23.2788 3.01172 24.917 4.11279 26.3135 5.50928C27.71 6.90576 28.8111 8.54395 29.6167 10.4238C30.4224 12.2858 30.8252 14.2821 30.8252 16.4126V39.5083ZM44.8998 39.5083H37.1922V0.997559H44.8998V39.5083ZM89.9655 39.5083H82.2848V12.0083C82.2848 11.4712 82.1774 10.9699 81.9626 10.5044C81.7656 10.0389 81.4881 9.63607 81.1301 9.2959C80.7899 8.93783 80.3871 8.66032 79.9216 8.46338C79.4561 8.26644 78.9548 8.16797 78.4177 8.16797C77.8805 8.16797 77.3792 8.26644 76.9137 8.46338C76.4483 8.66032 76.0365 8.93783 75.6784 9.2959C75.3382 9.63607 75.0697 10.0389 74.8727 10.5044C74.6758 10.9699 74.5773 11.4712 74.5773 12.0083V39.5083H66.8698V12.0083C66.8698 11.4712 66.7713 10.9699 66.5744 10.5044C66.3775 10.0389 66.0999 9.63607 65.7419 9.2959C65.4017 8.93783 64.9989 8.66032 64.5334 8.46338C64.0679 8.26644 63.5666 8.16797 63.0295 8.16797C62.4924 8.16797 61.9911 8.26644 61.5256 8.46338C61.0601 8.66032 60.6483 8.93783 60.2902 9.2959C59.95 9.63607 59.6815 10.0389 59.4846 10.5044C59.2876 10.9699 59.1891 11.4712 59.1891 12.0083V39.5083H51.4816V12.0083C51.4816 10.4149 51.777 8.91992 52.3679 7.52344C52.9766 6.10905 53.8001 4.88265 54.8386 3.84424C55.8949 2.78792 57.1213 1.96436 58.5178 1.37354C59.9321 0.764811 61.436 0.460449 63.0295 0.460449C64.4618 0.460449 65.8403 0.720052 67.1652 1.23926C68.4901 1.74056 69.6807 2.47461 70.737 3.44141C71.7933 2.47461 72.9749 1.74056 74.2819 1.23926C75.6068 0.720052 76.9854 0.460449 78.4177 0.460449C80.0111 0.460449 81.506 0.764811 82.9025 1.37354C84.3169 1.96436 85.5433 2.78792 86.5817 3.84424C87.638 4.88265 88.4616 6.10905 89.0524 7.52344C89.6611 8.91992 89.9655 10.4149 89.9655 12.0083V39.5083ZM212.326 39.5083H204.081L189.23 14.1567V39.5083H181.523V0.997559H189.767L204.618 26.376V0.997559H212.326V39.5083ZM249.093 39.5083H239.748L232.335 27.0742L224.896 39.5083H215.604L227.421 20.2529L215.604 0.997559H224.896L232.335 13.4316L239.748 0.997559H249.093L237.277 20.2529L249.093 39.5083Z" fill="#1F1E2E"/>
<path d="M134.279 20.4141C134.279 22.2402 134.038 24.0037 133.554 25.7046C133.089 27.3875 132.426 28.972 131.567 30.458C130.708 31.9261 129.669 33.2689 128.452 34.4863C127.234 35.7038 125.891 36.7511 124.423 37.6284C122.955 38.4878 121.371 39.1502 119.67 39.6157C117.969 40.0991 116.206 40.3408 114.379 40.3408C112.553 40.3408 110.79 40.0991 109.089 39.6157C107.406 39.1502 105.821 38.4878 104.335 37.6284C102.867 36.7511 101.525 35.7038 100.307 34.4863C99.0897 33.2689 98.0423 31.9261 97.165 30.458C96.3057 28.972 95.6343 27.3875 95.1509 25.7046C94.6854 24.0037 94.4526 22.2402 94.4526 20.4141C94.4526 18.5879 94.6854 16.8244 95.1509 15.1235C95.6343 13.4227 96.3057 11.8382 97.165 10.3701C98.0423 8.90202 99.0897 7.55924 100.307 6.3418C101.525 5.12435 102.867 4.08594 104.335 3.22656C105.821 2.36719 107.406 1.70475 109.089 1.23926C110.79 0.755859 112.553 0.51416 114.379 0.51416C116.206 0.51416 117.969 0.755859 119.67 1.23926C121.371 1.70475 122.955 2.36719 124.423 3.22656C125.891 4.08594 127.234 5.12435 128.452 6.3418C129.669 7.55924 130.708 8.90202 131.567 10.3701C132.426 11.8382 133.089 13.4227 133.554 15.1235C134.038 16.8244 134.279 18.5879 134.279 20.4141ZM126.625 20.4141C126.625 18.7311 126.303 17.1466 125.659 15.6606C125.014 14.1567 124.137 12.8587 123.027 11.7666C121.935 10.6566 120.637 9.7793 119.133 9.13477C117.647 8.49023 116.062 8.16797 114.379 8.16797C112.679 8.16797 111.085 8.49023 109.599 9.13477C108.113 9.7793 106.815 10.6566 105.705 11.7666C104.595 12.8587 103.718 14.1567 103.073 15.6606C102.429 17.1466 102.106 18.7311 102.106 20.4141C102.106 22.097 102.429 23.6815 103.073 25.1675C103.718 26.6356 104.595 27.9246 105.705 29.0347C106.815 30.1447 108.113 31.022 109.599 31.6665C111.085 32.311 112.679 32.6333 114.379 32.6333C116.062 32.6333 117.647 32.311 119.133 31.6665C120.637 31.022 121.935 30.1447 123.027 29.0347C124.137 27.9246 125.014 26.6356 125.659 25.1675C126.303 23.6815 126.625 22.097 126.625 20.4141ZM176.767 20.4141C176.767 22.2402 176.525 24.0037 176.042 25.7046C175.576 27.3875 174.914 28.972 174.055 30.458C173.195 31.9261 172.157 33.2689 170.939 34.4863C169.722 35.7038 168.379 36.7511 166.911 37.6284C165.443 38.4878 163.858 39.1502 162.158 39.6157C160.457 40.0991 158.693 40.3408 156.867 40.3408C155.041 40.3408 153.277 40.0991 151.576 39.6157C149.894 39.1502 148.309 38.4878 146.823 37.6284C145.355 36.7511 144.012 35.7038 142.795 34.4863C141.577 33.2689 140.53 31.9261 139.653 30.458C138.793 28.972 138.122 27.3875 137.638 25.7046C137.173 24.0037 136.94 22.2402 136.94 20.4141C136.94 18.5879 137.173 16.8244 137.638 15.1235C138.122 13.4227 138.793 11.8382 139.653 10.3701C140.53 8.90202 141.577 7.55924 142.795 6.3418C144.012 5.12435 145.355 4.08594 146.823 3.22656C148.309 2.36719 149.894 1.70475 151.576 1.23926C153.277 0.755859 155.041 0.51416 156.867 0.51416C158.693 0.51416 160.457 0.755859 162.158 1.23926C163.858 1.70475 165.443 2.36719 166.911 3.22656C168.379 4.08594 169.722 5.12435 170.939 6.3418C172.157 7.55924 173.195 8.90202 174.055 10.3701C174.914 11.8382 175.576 13.4227 176.042 15.1235C176.525 16.8244 176.767 18.5879 176.767 20.4141ZM169.113 20.4141C169.113 18.7311 168.791 17.1466 168.146 15.6606C167.502 14.1567 166.624 12.8587 165.514 11.7666C164.422 10.6566 163.124 9.7793 161.62 9.13477C160.134 8.49023 158.55 8.16797 156.867 8.16797C155.166 8.16797 153.573 8.49023 152.087 9.13477C150.601 9.7793 149.303 10.6566 148.193 11.7666C147.083 12.8587 146.205 14.1567 145.561 15.6606C144.916 17.1466 144.594 18.7311 144.594 20.4141C144.594 22.097 144.916 23.6815 145.561 25.1675C146.205 26.6356 147.083 27.9246 148.193 29.0347C149.303 30.1447 150.601 31.022 152.087 31.6665C153.573 32.311 155.166 32.6333 156.867 32.6333C158.55 32.6333 160.134 32.311 161.62 31.6665C163.124 31.022 164.422 30.1447 165.514 29.0347C166.624 27.9246 167.502 26.6356 168.146 25.1675C168.791 23.6815 169.113 22.097 169.113 20.4141Z" fill="#E57C43"/>
</svg>
