<svg width="290" height="289" viewBox="0 0 290 289" fill="none" xmlns="http://www.w3.org/2000/svg">
<rect width="290" height="289" fill="white"/>
<path d="M166.534 115.38C166.534 148.455 139.722 175.267 106.646 175.267C73.5713 175.267 46.7585 148.455 46.7585 115.38C46.7585 82.3044 73.5713 55.4917 106.646 55.4917C139.722 55.4917 166.534 82.3044 166.534 115.38ZM89.9347 115.38C89.9347 124.609 97.4168 132.091 106.646 132.091C115.876 132.091 123.358 124.609 123.358 115.38C123.358 106.15 115.876 98.6678 106.646 98.6678C97.4168 98.6678 89.9347 106.15 89.9347 115.38Z" fill="#E57C43"/>
<path fill-rule="evenodd" clip-rule="evenodd" d="M226.703 75.8865C237.844 87.2078 243.394 102.306 243.266 118.188L201.303 118.03C201.34 113.445 199.554 109.034 196.339 105.765C193.123 102.497 188.74 100.641 184.156 100.604C179.571 100.567 175.159 102.352 171.891 105.568C168.696 108.712 166.85 112.969 166.734 117.441L166.746 117.441C166.263 133.317 159.494 148.351 147.926 159.236C136.359 170.12 120.941 175.964 105.065 175.481C89.1896 174.998 74.1557 168.228 63.2712 156.661C52.3867 145.093 46.2757 130.985 46.7585 115.109L90.0532 115.109C89.9174 119.573 91.5606 123.908 94.6214 127.161C97.6822 130.414 101.91 132.318 106.374 132.454C110.839 132.589 115.174 130.946 118.427 127.885C121.68 124.825 123.583 120.597 123.719 116.133L124.154 116.146C124.603 100.723 130.991 86.0484 142.012 75.2037C153.333 64.0634 168.616 57.8768 184.499 58.0049C200.382 58.1329 215.563 64.5651 226.703 75.8865Z" fill="#B4A2F1"/>
<rect x="194.528" y="127.128" width="48.2897" height="48.2897" rx="24.1449" fill="#E57C43"/>
<path d="M45.1177 228.12V220.413C45.1177 219.356 44.9118 218.363 44.5 217.432C44.1062 216.483 43.5601 215.659 42.8619 214.961C42.1636 214.263 41.34 213.717 40.3912 213.323C39.4602 212.911 38.4665 212.705 37.4102 212.705C36.3539 212.705 35.3513 212.911 34.4024 213.323C33.4714 213.717 32.6568 214.263 31.9585 214.961C31.2603 215.659 30.7053 216.483 30.2935 217.432C29.8996 218.363 29.7027 219.356 29.7027 220.413V228.12H45.1177ZM52.8252 243.508H45.1177V235.801H29.7027V243.508H22.022V220.413C22.022 218.282 22.4248 216.286 23.2305 214.424C24.0362 212.544 25.1283 210.906 26.5069 209.509C27.9034 208.113 29.5326 207.012 31.3946 206.206C33.2745 205.4 35.2797 204.998 37.4102 204.998C39.5407 204.998 41.537 205.4 43.399 206.206C45.2788 207.012 46.917 208.113 48.3135 209.509C49.71 210.906 50.8111 212.544 51.6167 214.424C52.4224 216.286 52.8252 218.282 52.8252 220.413V243.508ZM66.8998 243.508H59.1922V204.998H66.8998V243.508ZM111.966 243.508H104.285V216.008C104.285 215.471 104.177 214.97 103.963 214.504C103.766 214.039 103.488 213.636 103.13 213.296C102.79 212.938 102.387 212.66 101.922 212.463C101.456 212.266 100.955 212.168 100.418 212.168C99.8805 212.168 99.3792 212.266 98.9137 212.463C98.4483 212.66 98.0365 212.938 97.6784 213.296C97.3382 213.636 97.0697 214.039 96.8727 214.504C96.6758 214.97 96.5773 215.471 96.5773 216.008V243.508H88.8698V216.008C88.8698 215.471 88.7713 214.97 88.5744 214.504C88.3775 214.039 88.0999 213.636 87.7419 213.296C87.4017 212.938 86.9989 212.66 86.5334 212.463C86.0679 212.266 85.5666 212.168 85.0295 212.168C84.4924 212.168 83.9911 212.266 83.5256 212.463C83.0601 212.66 82.6483 212.938 82.2902 213.296C81.95 213.636 81.6815 214.039 81.4846 214.504C81.2876 214.97 81.1891 215.471 81.1891 216.008V243.508H73.4816V216.008C73.4816 214.415 73.777 212.92 74.3679 211.523C74.9766 210.109 75.8001 208.883 76.8386 207.844C77.8949 206.788 79.1213 205.964 80.5178 205.374C81.9321 204.765 83.436 204.46 85.0295 204.46C86.4618 204.46 87.8403 204.72 89.1652 205.239C90.4901 205.741 91.6807 206.475 92.737 207.441C93.7933 206.475 94.9749 205.741 96.2819 205.239C97.6068 204.72 98.9854 204.46 100.418 204.46C102.011 204.46 103.506 204.765 104.903 205.374C106.317 205.964 107.543 206.788 108.582 207.844C109.638 208.883 110.462 210.109 111.052 211.523C111.661 212.92 111.966 214.415 111.966 216.008V243.508ZM234.326 243.508H226.081L211.23 218.157V243.508H203.523V204.998H211.767L226.618 230.376V204.998H234.326V243.508ZM271.093 243.508H261.748L254.335 231.074L246.896 243.508H237.604L249.421 224.253L237.604 204.998H246.896L254.335 217.432L261.748 204.998H271.093L259.277 224.253L271.093 243.508Z" fill="#1F1E2E"/>
<path d="M156.279 224.414C156.279 226.24 156.038 228.004 155.554 229.705C155.089 231.388 154.426 232.972 153.567 234.458C152.708 235.926 151.669 237.269 150.452 238.486C149.234 239.704 147.891 240.751 146.423 241.628C144.955 242.488 143.371 243.15 141.67 243.616C139.969 244.099 138.206 244.341 136.379 244.341C134.553 244.341 132.79 244.099 131.089 243.616C129.406 243.15 127.821 242.488 126.335 241.628C124.867 240.751 123.525 239.704 122.307 238.486C121.09 237.269 120.042 235.926 119.165 234.458C118.306 232.972 117.634 231.388 117.151 229.705C116.685 228.004 116.453 226.24 116.453 224.414C116.453 222.588 116.685 220.824 117.151 219.124C117.634 217.423 118.306 215.838 119.165 214.37C120.042 212.902 121.09 211.559 122.307 210.342C123.525 209.124 124.867 208.086 126.335 207.227C127.821 206.367 129.406 205.705 131.089 205.239C132.79 204.756 134.553 204.514 136.379 204.514C138.206 204.514 139.969 204.756 141.67 205.239C143.371 205.705 144.955 206.367 146.423 207.227C147.891 208.086 149.234 209.124 150.452 210.342C151.669 211.559 152.708 212.902 153.567 214.37C154.426 215.838 155.089 217.423 155.554 219.124C156.038 220.824 156.279 222.588 156.279 224.414ZM148.625 224.414C148.625 222.731 148.303 221.147 147.659 219.661C147.014 218.157 146.137 216.859 145.027 215.767C143.935 214.657 142.637 213.779 141.133 213.135C139.647 212.49 138.062 212.168 136.379 212.168C134.679 212.168 133.085 212.49 131.599 213.135C130.113 213.779 128.815 214.657 127.705 215.767C126.595 216.859 125.718 218.157 125.073 219.661C124.429 221.147 124.106 222.731 124.106 224.414C124.106 226.097 124.429 227.681 125.073 229.167C125.718 230.636 126.595 231.925 127.705 233.035C128.815 234.145 130.113 235.022 131.599 235.667C133.085 236.311 134.679 236.633 136.379 236.633C138.062 236.633 139.647 236.311 141.133 235.667C142.637 235.022 143.935 234.145 145.027 233.035C146.137 231.925 147.014 230.636 147.659 229.167C148.303 227.681 148.625 226.097 148.625 224.414ZM198.767 224.414C198.767 226.24 198.525 228.004 198.042 229.705C197.576 231.388 196.914 232.972 196.055 234.458C195.195 235.926 194.157 237.269 192.939 238.486C191.722 239.704 190.379 240.751 188.911 241.628C187.443 242.488 185.858 243.15 184.158 243.616C182.457 244.099 180.693 244.341 178.867 244.341C177.041 244.341 175.277 244.099 173.576 243.616C171.894 243.15 170.309 242.488 168.823 241.628C167.355 240.751 166.012 239.704 164.795 238.486C163.577 237.269 162.53 235.926 161.653 234.458C160.793 232.972 160.122 231.388 159.638 229.705C159.173 228.004 158.94 226.24 158.94 224.414C158.94 222.588 159.173 220.824 159.638 219.124C160.122 217.423 160.793 215.838 161.653 214.37C162.53 212.902 163.577 211.559 164.795 210.342C166.012 209.124 167.355 208.086 168.823 207.227C170.309 206.367 171.894 205.705 173.576 205.239C175.277 204.756 177.041 204.514 178.867 204.514C180.693 204.514 182.457 204.756 184.158 205.239C185.858 205.705 187.443 206.367 188.911 207.227C190.379 208.086 191.722 209.124 192.939 210.342C194.157 211.559 195.195 212.902 196.055 214.37C196.914 215.838 197.576 217.423 198.042 219.124C198.525 220.824 198.767 222.588 198.767 224.414ZM191.113 224.414C191.113 222.731 190.791 221.147 190.146 219.661C189.502 218.157 188.624 216.859 187.514 215.767C186.422 214.657 185.124 213.779 183.62 213.135C182.134 212.49 180.55 212.168 178.867 212.168C177.166 212.168 175.573 212.49 174.087 213.135C172.601 213.779 171.303 214.657 170.193 215.767C169.083 216.859 168.205 218.157 167.561 219.661C166.916 221.147 166.594 222.731 166.594 224.414C166.594 226.097 166.916 227.681 167.561 229.167C168.205 230.636 169.083 231.925 170.193 233.035C171.303 234.145 172.601 235.022 174.087 235.667C175.573 236.311 177.166 236.633 178.867 236.633C180.55 236.633 182.134 236.311 183.62 235.667C185.124 235.022 186.422 234.145 187.514 233.035C188.624 231.925 189.502 230.636 190.146 229.167C190.791 227.681 191.113 226.097 191.113 224.414Z" fill="#E57C43"/>
</svg>
