<svg width="198" height="121" viewBox="0 0 198 121" fill="none" xmlns="http://www.w3.org/2000/svg">
<path d="M120.534 60.3796C120.534 93.4548 93.7216 120.267 60.6464 120.267C27.5713 120.267 0.758545 93.4548 0.758545 60.3796C0.758545 27.3044 27.5713 0.491699 60.6464 0.491699C93.7216 0.491699 120.534 27.3044 120.534 60.3796ZM43.9347 60.3796C43.9347 69.6093 51.4168 77.0914 60.6464 77.0914C69.8761 77.0914 77.3582 69.6093 77.3582 60.3796C77.3582 51.1499 69.8761 43.6678 60.6464 43.6678C51.4168 43.6678 43.9347 51.1499 43.9347 60.3796Z" fill="#E57C43"/>
<path fill-rule="evenodd" clip-rule="evenodd" d="M180.703 20.8865C191.844 32.2078 197.394 47.3056 197.266 63.1883L155.303 63.0302C155.34 58.4453 153.554 54.0336 150.339 50.7654C147.123 47.4973 142.74 45.6405 138.156 45.6036C133.571 45.5666 129.159 47.3525 125.891 50.5683C122.696 53.7115 120.85 57.9691 120.734 62.4409L120.746 62.4413C120.263 78.3172 113.494 93.3511 101.926 104.236C90.3589 115.12 74.9414 120.964 59.0655 120.481C43.1896 119.998 28.1557 113.228 17.2712 101.661C6.3867 90.0933 0.275668 75.9847 0.758545 60.1088L44.0532 60.1086C43.9174 64.573 45.5606 68.9085 48.6214 72.1613C51.6822 75.4141 55.9098 77.3178 60.3742 77.4536C64.8386 77.5894 69.174 75.9461 72.4269 72.8854C75.6797 69.8246 77.5834 65.597 77.7191 61.1326L78.1537 61.1458C78.6029 45.7228 84.9907 31.0484 96.0118 20.2037C107.333 9.06341 122.616 2.87682 138.499 3.00488C154.382 3.13293 169.563 9.56514 180.703 20.8865Z" fill="#B4A2F1"/>
<rect x="148.528" y="72.1279" width="48.2897" height="48.2897" rx="24.1449" fill="#E57C43"/>
</svg>
