<svg width="60" height="60" viewBox="0 0 60 60" fill="none" xmlns="http://www.w3.org/2000/svg">
<circle cx="29.5066" cy="29.5066" r="29.5066" fill="#C3B5F4"/>
<path fill-rule="evenodd" clip-rule="evenodd" d="M39.828 25.5391C39.241 26.211 33.9731 32.1032 29.599 32.1032C25.2299 32.1032 19.9086 26.2157 19.315 25.5439C18.8714 25.0392 18.9381 24.2862 19.4667 23.8611C19.9937 23.4344 20.7825 23.5013 21.2277 24.0044C23.1804 26.2126 27.1777 29.7151 29.599 29.7151C32.0187 29.7151 35.9792 26.2157 37.9069 24.0091C38.3488 23.5045 39.1376 23.4376 39.6679 23.8563C40.1982 24.2798 40.2699 25.0328 39.828 25.5391ZM29.5807 14.1606C17.2388 14.1606 12.8647 18.1663 12.8647 29.4715C12.8647 40.7752 17.2388 44.7824 29.5807 44.7824C41.9225 44.7824 46.2966 40.7752 46.2966 29.4715C46.2966 18.1663 41.9225 14.1606 29.5807 14.1606Z" fill="white"/>
</svg>
