<svg width="24" height="24" viewBox="0 0 24 24" fill="none" xmlns="http://www.w3.org/2000/svg">
<circle cx="12" cy="12" r="12" fill="#AFB8C2"/>
<path fill-rule="evenodd" clip-rule="evenodd" d="M14.6788 8.74197C13.9565 8.06673 12.9926 7.69888 11.9953 7.714C10.1703 7.714 8.62039 8.92084 8.06775 10.5459C7.77473 11.3975 7.77473 12.3197 8.06775 13.1713H8.07031C8.62552 14.7939 10.1729 16.0008 11.9979 16.0008C12.9399 16.0008 13.7487 15.7646 14.3755 15.3474V15.3457C15.1132 14.867 15.617 14.1136 15.7738 13.262H11.9953V10.6216H18.5935C18.6757 11.0801 18.7143 11.5488 18.7143 12.0149C18.7143 14.1004 17.9539 15.8637 16.6309 17.0579L16.6323 17.059C15.473 18.1071 13.8819 18.7143 11.9953 18.7143C9.35036 18.7143 6.93163 17.253 5.74412 14.9375C4.75196 13 4.75196 10.7173 5.74413 8.77978C6.93164 6.46181 9.35036 5.00046 11.9953 5.00046C13.7329 4.98031 15.4113 5.62027 16.676 6.78429L14.6788 8.74197Z" fill="white"/>
</svg>
