<svg width="60" height="60" viewBox="0 0 60 60" fill="none" xmlns="http://www.w3.org/2000/svg">
<circle cx="29.5066" cy="29.5066" r="29.5066" fill="#98BDE3"/>
<path fill-rule="evenodd" clip-rule="evenodd" d="M38.4247 29.8807C36.8411 29.8807 35.3547 30.1858 34.1044 30.703C38.4803 31.9099 41.5781 34.8011 41.6614 38.183C43.9396 37.9045 46.3984 37.0822 46.3984 34.8408C46.3984 32.1486 42.745 29.8807 38.4247 29.8807Z" fill="white"/>
<path fill-rule="evenodd" clip-rule="evenodd" d="M38.383 27.971H38.4108C41.3697 27.971 43.7868 25.6633 43.7868 22.8517C43.7868 20.0268 41.3697 17.7191 38.4108 17.7191C37.8273 17.7191 37.2717 17.812 36.7438 17.9711C37.7023 19.3239 38.258 20.9552 38.258 22.7191C38.2719 24.5095 37.6884 26.2336 36.591 27.6659C37.1606 27.8649 37.7579 27.971 38.383 27.971Z" fill="white"/>
<path fill-rule="evenodd" clip-rule="evenodd" d="M24.7415 30.6897C23.4913 30.1858 22.0049 29.8807 20.4352 29.8807C16.1149 29.8807 12.4614 32.1486 12.4614 34.8408C12.4614 37.0822 14.9063 37.8912 17.1845 38.183C17.254 34.8011 20.3518 31.9099 24.7415 30.6897Z" fill="white"/>
<path fill-rule="evenodd" clip-rule="evenodd" d="M20.4352 27.971H20.4768C21.102 27.971 21.6993 27.8649 22.2688 27.6659C21.2131 26.2866 20.588 24.5758 20.588 22.7191C20.588 20.9552 21.1436 19.3239 22.1022 17.9711C21.5743 17.812 21.0186 17.7191 20.4352 17.7191C17.4763 17.7191 15.073 20.0268 15.073 22.8517C15.073 25.6633 17.4763 27.971 20.4352 27.971Z" fill="white"/>
<path fill-rule="evenodd" clip-rule="evenodd" d="M29.4224 32.0518C23.92 32.0518 19.2705 34.9112 19.2705 38.2957C19.2705 42.6723 26.9109 42.6723 29.4224 42.6723C33.7816 42.6723 39.5771 42.2214 39.5771 38.3236C39.5771 34.9231 34.9263 32.0518 29.4224 32.0518Z" fill="white"/>
<path fill-rule="evenodd" clip-rule="evenodd" d="M29.4238 29.1726H29.4696C31.2686 29.1673 32.9578 28.4923 34.2247 27.2735C35.493 26.0547 36.1876 24.438 36.1806 22.7231C36.1806 19.1648 33.1509 16.271 29.4238 16.271C25.6981 16.271 22.6684 19.1648 22.6684 22.7231C22.6684 26.2788 25.6981 29.1726 29.4238 29.1726Z" fill="white"/>
</svg>
