<svg width="12" height="3" viewBox="0 0 12 3" fill="none" xmlns="http://www.w3.org/2000/svg">
<g id="More Square">
<path id="Stroke 11 (Stroke)" fill-rule="evenodd" clip-rule="evenodd" d="M9.59106 1.19916C9.59106 0.536883 10.1279 0 10.7902 0H10.801C11.4633 0 12.0002 0.536883 12.0002 1.19916C12.0002 1.86144 11.4633 2.39832 10.801 2.39832H10.7902C10.1279 2.39832 9.59106 1.86144 9.59106 1.19916Z" fill="#E57C43"/>
<path id="Stroke 13 (Stroke)" fill-rule="evenodd" clip-rule="evenodd" d="M4.79688 1.19916C4.79688 0.536883 5.33376 0 5.99604 0H6.00683C6.66911 0 7.20599 0.536883 7.20599 1.19916C7.20599 1.86144 6.66911 2.39832 6.00683 2.39832H5.99604C5.33376 2.39832 4.79688 1.86144 4.79688 1.19916Z" fill="#E57C43"/>
<path id="Stroke 15 (Stroke)" fill-rule="evenodd" clip-rule="evenodd" d="M0 1.19916C0 0.536883 0.536883 0 1.19916 0H1.20995C1.87223 0 2.40911 0.536883 2.40911 1.19916C2.40911 1.86144 1.87223 2.39832 1.20995 2.39832H1.19916C0.536883 2.39832 0 1.86144 0 1.19916Z" fill="#E57C43"/>
</g>
</svg>
