<svg width="274" height="206" viewBox="0 0 274 206" fill="none" xmlns="http://www.w3.org/2000/svg">
<path d="M217.298 42.1922H56.7685C54.5498 42.1922 52.7447 40.3871 52.7447 38.1684V25.8007C52.7447 23.582 54.5498 21.7769 56.7685 21.7769H217.298C219.517 21.7769 221.322 23.582 221.322 25.8007V38.1684C221.322 40.3871 219.517 42.1922 217.298 42.1922Z" fill="white" stroke="#BAB7C9" stroke-width="0.995278" stroke-linecap="round" stroke-linejoin="round"/>
<path d="M217.298 118.433H56.7685C54.5498 118.433 52.7447 116.628 52.7447 114.409V102.041C52.7447 99.8227 54.5498 98.0176 56.7685 98.0176H217.298C219.517 98.0176 221.322 99.8227 221.322 102.041V114.409C221.322 116.628 219.517 118.433 217.298 118.433Z" fill="white" stroke="#BAB7C9" stroke-width="0.995278" stroke-linecap="round" stroke-linejoin="round"/>
<path d="M103.339 173.174H56.2709C54.0522 173.174 52.2471 171.369 52.2471 169.15V156.782C52.2471 154.563 54.0522 152.758 56.2709 152.758H103.339C105.558 152.758 107.363 154.563 107.363 156.782V169.15C107.363 171.369 105.558 173.174 103.339 173.174Z" fill="#EA9669"/>
<path d="M53.0972 0.497559H88.3051" stroke="#BAB7C9" stroke-width="0.995278" stroke-linecap="round" stroke-linejoin="round"/>
<path d="M53.0972 76.7388H118.499" stroke="#BAB7C9" stroke-width="0.995278" stroke-linecap="round" stroke-linejoin="round"/>
<path d="M197.877 182.754L192.34 186.293L197.361 194.146L202.897 190.607L197.877 182.754Z" fill="#F1A1A4"/>
<path d="M180.318 77.1847L173.325 79.573L173.215 69.4743L179.579 69.4033L180.318 77.1847Z" fill="#F1A1A4"/>
<path d="M174.031 72.2631C177.894 72.2631 181.025 69.1318 181.025 65.2692C181.025 61.4066 177.894 58.2754 174.031 58.2754C170.169 58.2754 167.037 61.4066 167.037 65.2692C167.037 69.1318 170.169 72.2631 174.031 72.2631Z" fill="#F1A1A4"/>
<path d="M175.945 64.5558C174.777 64.5332 173.993 63.3616 173.525 62.2836C173.057 61.2121 172.576 59.9728 171.488 59.5371C170.597 59.1821 169.061 61.6607 168.351 61.0153C167.612 60.3407 168.287 56.8164 169.058 56.1806C169.829 55.5448 170.888 55.4092 171.882 55.3479C174.319 55.2091 176.768 55.3769 179.163 55.8514C180.641 56.1418 182.171 56.5904 183.246 57.6458C184.611 58.9852 184.979 61.0249 185.095 62.9324C185.218 64.885 185.124 66.9311 184.195 68.6546C183.262 70.3748 181.29 71.6561 179.376 71.243C179.173 70.207 179.353 69.1452 179.418 68.0866C179.483 67.0344 179.389 65.8984 178.737 65.0657C178.085 64.233 176.71 63.9167 175.971 64.6687" fill="#2F2E43"/>
<path d="M158.549 132.955C158.111 135.256 158.985 137.347 160.509 137.622C162.029 137.896 163.62 136.25 164.062 133.949C164.252 133.032 164.21 132.083 163.939 131.183L169.319 95.113L162.071 93.835L159.686 130.421C159.101 131.17 158.711 132.038 158.549 132.964L158.549 132.955Z" fill="#F1A1A4"/>
<path d="M173.196 74.9385L168.258 74.9933C164.772 75.5581 163.846 77.4333 163.094 80.8802C161.941 86.1377 160.19 94.9032 160.5 95C160.994 95.1614 166.224 97.4553 170.5 96.5L173.199 74.9385L173.196 74.9385Z" fill="#B4A2F1"/>
<path d="M179.26 189.581L172.69 189.655L172.794 198.975L179.364 198.902L179.26 189.581Z" fill="#F1A1A4"/>
<path d="M166.441 204.691C165.747 204.701 165.137 204.691 164.672 204.652C162.923 204.514 161.248 203.242 160.399 202.5C160.018 202.167 159.892 201.625 160.082 201.16C160.218 200.828 160.496 200.573 160.844 200.466L165.443 199.098L172.857 193.976L172.941 194.125C172.973 194.179 173.722 195.493 173.977 196.384C174.073 196.723 174.054 197.003 173.912 197.223C173.815 197.375 173.68 197.465 173.57 197.52C173.705 197.659 174.131 197.943 175.442 198.136C177.346 198.42 177.73 196.439 177.743 196.355L177.756 196.287L177.811 196.248C178.711 195.651 179.263 195.383 179.457 195.438C179.579 195.47 179.776 195.532 180.377 200.902C180.431 201.07 180.825 202.303 180.58 203.491C180.315 204.782 174.683 204.397 173.56 204.31C173.528 204.314 169.319 204.662 166.434 204.691H166.444L166.441 204.691Z" fill="#2F2E43"/>
<path d="M190.701 203.141C189.93 203.151 189.22 203.064 188.713 202.98C188.216 202.896 187.822 202.506 187.738 202.009C187.674 201.65 187.78 201.292 188.016 201.021L191.192 197.426L194.768 189.157L194.919 189.238C194.974 189.267 196.304 189.986 196.995 190.606C197.256 190.842 197.388 191.09 197.388 191.355C197.388 191.536 197.32 191.684 197.253 191.784C197.443 191.829 197.953 191.842 199.167 191.316C200.932 190.548 200.209 188.663 200.177 188.589L200.151 188.524L200.18 188.466C200.629 187.485 200.958 186.962 201.148 186.904C201.271 186.872 201.468 186.811 204.821 191.051C204.957 191.164 205.944 192 206.364 193.136C206.819 194.372 201.845 197.025 200.838 197.545C200.809 197.571 195.61 201.434 193.473 202.541C192.625 202.98 191.614 203.125 190.695 203.132L190.704 203.141L190.701 203.141Z" fill="#2F2E43"/>
<path d="M183.22 111.563L164.823 111.767L163.345 128.898L171.353 192.052L180.744 191.946L176.584 155.466L192.186 188.273L200.467 182.334L188.229 151.68C188.229 151.68 187.232 124.327 189.5 116.5C186.089 109.858 183.223 111.554 183.223 111.554V111.563L183.22 111.563Z" fill="#1F1E2E"/>
<path d="M192.379 112.506H165L166.5 93L171.508 74.9612L184.24 74.8159L192.379 112.506Z" fill="#B4A2F1"/>
<path d="M195.232 132.548C195.723 134.843 194.893 136.951 193.38 137.257C191.863 137.567 190.236 135.956 189.749 133.662C189.539 132.748 189.558 131.8 189.807 130.893L183.623 94.9487L190.84 93.5093L194.038 130.037C194.638 130.773 195.048 131.635 195.232 132.555V132.548Z" fill="#F1A1A4"/>
<path d="M179.305 74.8708L184.243 74.8159C187.738 75.3065 188.707 77.159 189.539 80.5898C190.808 85.8215 192.303 95.3935 192 95.5C191.506 95.6678 183.5 96.2525 178.985 96.2525L179.311 74.8708L179.305 74.8708Z" fill="#B4A2F1"/>
</svg>
