<svg width="56" height="56" viewBox="0 0 56 56" fill="none" xmlns="http://www.w3.org/2000/svg">
<circle cx="28" cy="28" r="28" fill="#F0ECFC"/>
<g filter="url(#filter0_f_594_1000)">
<circle cx="27.5" cy="28.5" r="15.5" fill="white"/>
</g>
<path opacity="0.4" fill-rule="evenodd" clip-rule="evenodd" d="M27.8445 37.6618C24.1527 37.6618 21 37.0873 21 34.7865C21 32.4858 24.1327 30.3618 27.8445 30.3618C31.5364 30.3618 34.6891 32.4652 34.6891 34.766C34.6891 37.0658 31.5564 37.6618 27.8445 37.6618Z" stroke="#B4A2F1" stroke-width="1.5" stroke-linecap="round" stroke-linejoin="round"/>
<path fill-rule="evenodd" clip-rule="evenodd" d="M27.8373 27.1735C30.26 27.1735 32.2237 25.2099 32.2237 22.7872C32.2237 20.3644 30.26 18.3999 27.8373 18.3999C25.4146 18.3999 23.45 20.3644 23.45 22.7872C23.4419 25.2017 25.3919 27.1654 27.8064 27.1735C27.8173 27.1735 27.8273 27.1735 27.8373 27.1735Z" stroke="#B4A2F1" stroke-width="1.5" stroke-linecap="round" stroke-linejoin="round"/>
<defs>
<filter id="filter0_f_594_1000" x="1.4" y="2.4" width="52.2" height="52.2" filterUnits="userSpaceOnUse" color-interpolation-filters="sRGB">
<feFlood flood-opacity="0" result="BackgroundImageFix"/>
<feBlend mode="normal" in="SourceGraphic" in2="BackgroundImageFix" result="shape"/>
<feGaussianBlur stdDeviation="5.3" result="effect1_foregroundBlur_594_1000"/>
</filter>
</defs>
</svg>
