<svg width="24" height="21" viewBox="0 0 24 21" fill="none" xmlns="http://www.w3.org/2000/svg">
<rect width="24" height="21" fill="#1E1E1E"/>
<g id="5.Profile">
<g clip-path="url(#clip0_8_44)">
<rect x="-40" y="-71" width="393" height="852" rx="30" fill="white"/>
<g id="Frame 445">
<g id="Frame 444">
<rect id="Rectangle 8" x="-24" y="-12" width="71.451" height="41.9179" rx="16" fill="#D2D2D5" fill-opacity="0.2"/>
<g id="Iconly/Curved/Light/Scan">
<g id="Scan">
<path id="Stroke 1" d="M22.582 11.3384H1.45" stroke="#1F1E2E" stroke-width="1.5" stroke-linecap="round" stroke-linejoin="round"/>
<path id="Stroke 3" d="M2.9961 7.25828C3.5661 3.77828 5.2861 2.05828 8.7661 1.48828" stroke="#1F1E2E" stroke-width="1.5" stroke-linecap="round" stroke-linejoin="round"/>
<path id="Stroke 5" d="M8.7661 19.5283C5.2861 18.9483 3.5661 17.2383 2.9961 13.7583L2.9951 13.7623C2.8741 13.0423 2.8051 12.2323 2.7851 11.3423" stroke="black" stroke-width="1.5" stroke-linecap="round" stroke-linejoin="round"/>
<path id="Stroke 7" d="M21.2446 11.3423C21.2246 12.2323 21.1546 13.0423 21.0346 13.7623L21.0366 13.7583C20.4656 17.2383 18.7456 18.9483 15.2656 19.5283" stroke="black" stroke-width="1.5" stroke-linecap="round" stroke-linejoin="round"/>
<path id="Stroke 9" d="M15.2661 1.48828C18.7461 2.05828 20.4661 3.77828 21.0361 7.25828" stroke="black" stroke-width="1.5" stroke-linecap="round" stroke-linejoin="round"/>
</g>
</g>
</g>
</g>
</g>
</g>
<defs>
<clipPath id="clip0_8_44">
<rect x="-40" y="-71" width="393" height="852" rx="30" fill="white"/>
</clipPath>
</defs>
</svg>
