<svg width="175" height="189" viewBox="0 0 175 189" fill="none" xmlns="http://www.w3.org/2000/svg">
<circle cx="59.0445" cy="129.045" r="59.0445" fill="#EDF4FA"/>
<path fill-rule="evenodd" clip-rule="evenodd" d="M26.8857 81.3999C26.8857 38.8518 43.0622 24.6733 91.6049 24.6733C140.141 24.6733 156.317 38.8518 156.317 81.3999C156.317 123.942 140.141 138.126 91.6049 138.126C43.0622 138.126 26.8857 123.942 26.8857 81.3999Z" fill="#B4A2F1"/>
<path fill-rule="evenodd" clip-rule="evenodd" d="M60.9263 54.1004H89.1771Z" fill="white"/>
<path d="M60.9263 54.1004H89.1771" stroke="white" stroke-width="10.4375" stroke-linecap="round" stroke-linejoin="round"/>
<path fill-rule="evenodd" clip-rule="evenodd" d="M103.482 121.861C103.482 98.996 111.468 91.3721 135.418 91.3721C159.368 91.3721 167.354 98.996 167.354 121.861C167.354 144.727 159.368 152.351 135.418 152.351C111.468 152.351 103.482 144.727 103.482 121.861Z" fill="white" stroke="#E57C43" stroke-opacity="0.5" stroke-width="4.91982" stroke-linecap="round" stroke-linejoin="round"/>
<path d="M135.418 110.668V133.052" stroke="#E57C43" stroke-width="4.91982" stroke-linecap="round" stroke-linejoin="round"/>
<path d="M147.153 121.861H123.683" stroke="#E57C43" stroke-width="4.91982" stroke-linecap="round" stroke-linejoin="round"/>
</svg>
