<svg width="59" height="59" viewBox="0 0 59 59" fill="none" xmlns="http://www.w3.org/2000/svg">
<circle cx="29.1079" cy="29.1079" r="29.1079" fill="#C3B5F4"/>
<g clip-path="url(#clip0_1949_1779)">
<path fill-rule="evenodd" clip-rule="evenodd" d="M36.2829 42.0576C36.706 42.3572 37.2513 42.4321 37.7374 42.2481C38.2235 42.0629 38.5809 41.6477 38.6887 41.1444C39.8304 35.7785 42.6001 22.1967 43.6394 17.3156C43.7183 16.9477 43.5869 16.5654 43.2978 16.3197C43.0088 16.074 42.608 16.003 42.2506 16.1357C36.7415 18.1749 19.7751 24.5407 12.8403 27.1068C12.4002 27.2697 12.1138 27.6928 12.1282 28.1566C12.144 28.6217 12.4567 29.0251 12.9073 29.1604C16.0173 30.0906 20.0996 31.3848 20.0996 31.3848C20.0996 31.3848 22.0074 37.1463 23.002 40.0762C23.1268 40.4441 23.4146 40.7332 23.7943 40.833C24.1727 40.9316 24.5774 40.8278 24.8599 40.5611C26.4576 39.0527 28.9277 36.7205 28.9277 36.7205C28.9277 36.7205 33.621 40.1616 36.2829 42.0576ZM21.8169 30.6569L24.0229 37.9333L24.513 33.3254C24.513 33.3254 33.0363 25.6378 37.8951 21.256C38.037 21.1272 38.0567 20.9117 37.9384 20.7606C37.8215 20.6095 37.606 20.5741 37.4444 20.6765C31.813 24.2727 21.8169 30.6569 21.8169 30.6569Z" fill="white"/>
</g>
<defs>
<clipPath id="clip0_1949_1779">
<rect width="31.5335" height="31.5335" fill="white" transform="translate(12.1284 12.1289)"/>
</clipPath>
</defs>
</svg>
