<svg width="32" height="32" viewBox="0 0 32 32" fill="none" xmlns="http://www.w3.org/2000/svg">
<circle cx="16" cy="16" r="16" fill="#F7F6FE"/>
<g clip-path="url(#clip0_3184_2252)">
<path fill-rule="evenodd" clip-rule="evenodd" d="M19.9441 23.1179C20.1767 23.2826 20.4764 23.3238 20.7436 23.2227C21.0108 23.1208 21.2073 22.8926 21.2665 22.616C21.8941 19.6664 23.4166 12.2008 23.9879 9.51778C24.0312 9.31556 23.959 9.10539 23.8001 8.97034C23.6412 8.83528 23.4209 8.79628 23.2245 8.86923C20.1962 9.99011 10.8701 13.4893 7.05824 14.8998C6.81629 14.9893 6.65885 15.2219 6.66679 15.4768C6.67546 15.7325 6.84735 15.9542 7.09507 16.0286C8.80457 16.5399 11.0485 17.2513 11.0485 17.2513C11.0485 17.2513 12.0972 20.4183 12.6439 22.0288C12.7125 22.2311 12.8707 22.3899 13.0794 22.4448C13.2874 22.499 13.5098 22.4419 13.6651 22.2953C14.5433 21.4662 15.9011 20.1843 15.9011 20.1843C15.9011 20.1843 18.4809 22.0758 19.9441 23.1179ZM11.9925 16.8512L13.2051 20.8509L13.4745 18.3181C13.4745 18.3181 18.1595 14.0923 20.8303 11.6837C20.9083 11.6129 20.9191 11.4945 20.8541 11.4114C20.7899 11.3284 20.6714 11.3089 20.5826 11.3652C17.4871 13.3419 11.9925 16.8512 11.9925 16.8512Z" fill="#B4A2F1"/>
</g>
<defs>
<clipPath id="clip0_3184_2252">
<rect width="17.3333" height="17.3333" fill="white" transform="translate(6.66699 6.66699)"/>
</clipPath>
</defs>
</svg>
