<svg width="24" height="24" viewBox="0 0 24 24" fill="none" xmlns="http://www.w3.org/2000/svg">
<circle cx="12" cy="12" r="12" fill="#C3B5F4"/>
<g clip-path="url(#clip0_161_256)">
<path fill-rule="evenodd" clip-rule="evenodd" d="M14.958 17.3387C15.1324 17.4622 15.3572 17.4931 15.5576 17.4172C15.758 17.3409 15.9053 17.1697 15.9498 16.9622C16.4205 14.7501 17.5623 9.15087 17.9908 7.13858C18.0233 6.98691 17.9691 6.82929 17.8499 6.728C17.7308 6.62671 17.5656 6.59746 17.4182 6.65216C15.147 7.49283 8.15247 10.1172 5.29355 11.1751C5.1121 11.2422 4.99401 11.4167 4.99997 11.6079C5.00647 11.7996 5.13539 11.9659 5.32118 12.0217C6.6033 12.4052 8.28626 12.9387 8.28626 12.9387C8.28626 12.9387 9.07276 15.314 9.4828 16.5219C9.53426 16.6735 9.65289 16.7927 9.80943 16.8339C9.96543 16.8745 10.1323 16.8317 10.2487 16.7217C10.9074 16.0999 11.9257 15.1385 11.9257 15.1385C11.9257 15.1385 13.8606 16.5571 14.958 17.3387ZM8.99422 12.6387L9.90368 15.6384L10.1057 13.7388C10.1057 13.7388 13.6195 10.5695 15.6226 8.76304C15.6811 8.70996 15.6892 8.62112 15.6405 8.55883C15.5923 8.49654 15.5034 8.48191 15.4368 8.52416C13.1152 10.0067 8.99422 12.6387 8.99422 12.6387Z" fill="white"/>
</g>
<defs>
<clipPath id="clip0_161_256">
<rect width="13" height="13" fill="white" transform="translate(5 5)"/>
</clipPath>
</defs>
</svg>
