<svg width="19" height="19" viewBox="0 0 19 19" fill="none" xmlns="http://www.w3.org/2000/svg">
<g id="time-past (1)" clip-path="url(#clip0_533_2543)">
<path id="Vector" d="M9.25 0.25C6.97258 0.251624 4.77618 1.09531 3.08333 2.61877V1.02083C3.08333 0.816396 3.00212 0.620331 2.85756 0.475772C2.713 0.331213 2.51694 0.25 2.3125 0.25C2.10806 0.25 1.912 0.331213 1.76744 0.475772C1.62288 0.620331 1.54167 0.816396 1.54167 1.02083V3.33333C1.54167 3.94665 1.7853 4.53484 2.21898 4.96852C2.65266 5.4022 3.24085 5.64583 3.85417 5.64583H6.16667C6.3711 5.64583 6.56717 5.56462 6.71173 5.42006C6.85629 5.2755 6.9375 5.07944 6.9375 4.875C6.9375 4.67056 6.85629 4.4745 6.71173 4.32994C6.56717 4.18538 6.3711 4.10417 6.16667 4.10417H3.85417C3.82817 4.10031 3.80243 4.09491 3.77708 4.08798C5.03317 2.82291 6.68939 2.033 8.46303 1.85308C10.2367 1.67315 12.0178 2.11438 13.5023 3.10144C14.9869 4.08849 16.0828 5.56019 16.6031 7.26532C17.1234 8.97044 17.0358 10.8033 16.3552 12.451C15.6746 14.0987 14.4433 15.4592 12.8713 16.3001C11.2994 17.141 9.48433 17.4103 7.73594 17.062C5.98755 16.7137 4.41424 15.7694 3.28456 14.3903C2.15488 13.0112 1.53887 11.2827 1.54167 9.5C1.54167 9.29556 1.46045 9.0995 1.31589 8.95494C1.17134 8.81038 0.975271 8.72917 0.770833 8.72917C0.566396 8.72917 0.370331 8.81038 0.225772 8.95494C0.0812126 9.0995 0 9.29556 0 9.5C0 11.3295 0.542503 13.1179 1.55891 14.639C2.57531 16.1602 4.01996 17.3458 5.71018 18.0459C7.40039 18.746 9.26026 18.9292 11.0546 18.5723C12.8489 18.2154 14.4971 17.3344 15.7907 16.0407C17.0844 14.7471 17.9654 13.0989 18.3223 11.3046C18.6792 9.51026 18.496 7.65039 17.7959 5.96018C17.0958 4.26996 15.9102 2.82531 14.389 1.80891C12.8679 0.792503 11.0795 0.25 9.25 0.25Z" fill="#E57C43"/>
</g>
<defs>
<clipPath id="clip0_533_2543">
<rect width="18.5" height="18.5" fill="white" transform="translate(0 0.25)"/>
</clipPath>
</defs>
</svg>
